<?xml version="1.0" encoding="UTF-8" standalone="no"?>
<!DOCTYPE svg PUBLIC "-//W3C//DTD SVG 1.1//EN" "http://www.w3.org/Graphics/SVG/1.1/DTD/svg11.dtd">
<svg width="100%" height="100%" viewBox="0 0 45 45" version="1.1" xmlns="http://www.w3.org/2000/svg" xmlns:xlink="http://www.w3.org/1999/xlink" xml:space="preserve" xmlns:serif="http://www.serif.com/" style="fill-rule:evenodd;clip-rule:evenodd;stroke-linejoin:round;stroke-miterlimit:2;">
    <g transform="matrix(-1,0,0,1,44.952,0)">
        <path d="M44.952,22.108C44.952,20.858 44.474,19.684 43.59,18.8L30.627,5.831C29.65,4.854 28.066,4.854 27.091,5.831C26.113,6.808 26.115,8.399 27.091,9.377L37.665,19.947L2.484,19.947C1.102,19.948 0,21.081 0,22.464L0,22.492C0,23.874 1.102,25.015 2.484,25.015L37.666,25.015L27.094,35.579C26.116,36.557 26.116,38.143 27.094,39.12C28.071,40.099 29.655,40.098 30.632,39.119L43.59,26.149C44.475,25.267 44.952,24.09 44.952,22.84L44.952,22.108Z" style="fill-rule:nonzero;"/>
    </g>
</svg>
